<svg width="20" height="20" viewBox="0 0 20 20"  xmlns="http://www.w3.org/2000/svg">
<g id="&#230;&#149;&#176;&#230;&#141;&#174;&#229;&#186;&#147;">
<path id="Subtract" fill-rule="evenodd" clip-rule="evenodd" d="M13 3H7V18H13V3ZM12 5H8V6H12V5ZM8 7H12V8H8V7ZM12 10H8V11H12V10Z" />
<path id="Subtract_2" fill-rule="evenodd" clip-rule="evenodd" d="M3 3C2.44772 3 2 3.44772 2 4V17C2 17.5523 2.44772 18 3 18H6V3H3ZM5 5H3V6H5V5ZM3 7H5V8H3V7ZM5 10H3V11H5V10Z" />
<path id="Subtract_3" fill-rule="evenodd" clip-rule="evenodd" d="M17 3H14V18H17C17.5523 18 18 17.5523 18 17V4C18 3.44772 17.5523 3 17 3ZM17 5H15V6H17V5ZM15 7H17V8H15V7ZM17 10H15V11H17V10Z" />
</g>
</svg>
